<svg xmlns="http://www.w3.org/2000/svg" viewBox="0 0 32 32">
  <style>
    path { fill: #1a1a1a; }
    @media (prefers-color-scheme: dark) {
      path { fill: #e6e6e6; }
    }
  </style>
  <path d="M4 24V12.5c0-1.5.4-2.7 1.2-3.5.8-.8 1.8-1.2 3-1.2 1.4 0 2.5.5 3.3 1.5.8-1 2-1.5 3.5-1.5 1.4 0 2.5.5 3.3 1.5.8-1 2-1.5 3.5-1.5 1.2 0 2.2.4 3 1.2.8.8 1.2 2 1.2 3.5V24h-3.5V13.2c0-.7-.2-1.2-.5-1.6-.3-.4-.8-.6-1.4-.6s-1.1.2-1.4.6c-.3.4-.5.9-.5 1.6V24h-3.5V13.2c0-.7-.2-1.2-.5-1.6-.3-.4-.8-.6-1.4-.6s-1.1.2-1.4.6c-.3.4-.5.9-.5 1.6V24H4z"/>
</svg>
